<?xml version="1.0" encoding="UTF-8"?>
<svg width="800px" height="800px" version="1.1" viewBox="0 0 506 506" xml:space="preserve" xmlns="http://www.w3.org/2000/svg">
<path id="circle" d="m253 8c-135 0-245 110-245 245s110 245 245 245 245-110 245-245-110-245-245-245z" fill="#33A5D2" stroke="#000" stroke-width="8.23"/>
<path id="x_p" d="m242 137c-2.4 0-8 0.4-8 5.2v90.8c0 2.4-1.6 4-4 4h-91.2c-4.4 0-9.2 4-9.2 8v16c0 4 4.8 8 9.2 8h90.8c2.4 0 4 1.6 4 4v91.2c0 4.4 4 8.8 8 8.8h16c4 0 7.6-4.4 7.6-8.8v-91.2c0-2.4 1.6-4 4-4h91.2c3.2 0 4.8-2.8 4.8-8v-16c0-4-2.4-8-6.8-8h-88.8c-2.4 0-4-1.6-4-4v-90.8c0-4.8-4.8-5.2-7.6-5.2h-16z" fill="#F4EFEF" stroke="#000" stroke-width="8.23"/>


</svg>
