<?xml version="1.0" encoding="UTF-8"?>
<svg width="800px" height="800px" version="1.1" viewBox="0 0 506 506" xml:space="preserve" xmlns="http://www.w3.org/2000/svg">





<rect id="background" x="162" y="113" width="174" height="317" fill="#f4efef"/><path id="button_circle" d="m253 8c-135 0-245 110-245 245s110 245 245 245 245-110 245-245-110-245-245-245zm-45.2 119h7.6c8.4 0 15.6 7.2 15.6 16v224c0 9.2-6.4 16-14.8 16h-9.2c-8.8 0-16-7.2-16-15.6v-225c0-8.4 8-16 16.8-16zm82 2h7.6c8.4 0 15.6 7.2 15.6 16v224c0 9.2-6.4 16-14.8 16h-9.2c-8.8 0-16-7.2-16-15.6v-225c0-8.4 8-16 16.8-16z" fill="#e07d46" stroke="#000" stroke-width="8.23"/></svg>
