<?xml version="1.0" encoding="UTF-8" standalone="no"?>
<!-- Uploaded to: SVG Repo, www.svgrepo.com, Generator: SVG Repo Mixer Tools -->

<svg
   height="800px"
   width="800px"
   version="1.1"
   id="Layer_1"
   viewBox="0 0 506.4 506.4"
   xml:space="preserve"
   sodipodi:docname="pause.svg"
   inkscape:version="1.4.3 (0d15f75042, 2025-12-25)"
   xmlns:inkscape="http://www.inkscape.org/namespaces/inkscape"
   xmlns:sodipodi="http://sodipodi.sourceforge.net/DTD/sodipodi-0.dtd"
   xmlns="http://www.w3.org/2000/svg"
   xmlns:svg="http://www.w3.org/2000/svg"
   xmlns:rdf="http://www.w3.org/1999/02/22-rdf-syntax-ns#"
   xmlns:cc="http://creativecommons.org/ns#"><defs
   id="defs6"><linearGradient
     id="swatch18"
     inkscape:swatch="solid"><stop
       style="stop-color:#f4efef;stop-opacity:1;"
       offset="0"
       id="stop18" /></linearGradient><linearGradient
     id="swatch12"
     inkscape:swatch="solid"><stop
       style="stop-color:#f4efef;stop-opacity:1;"
       offset="0"
       id="stop12" /></linearGradient><linearGradient
     id="swatch6"
     inkscape:swatch="solid"><stop
       style="stop-color:#f4efef;stop-opacity:1;"
       offset="0"
       id="stop6" /></linearGradient></defs><sodipodi:namedview
   id="namedview6"
   pagecolor="#ffffff"
   bordercolor="#000000"
   borderopacity="0.25"
   inkscape:showpageshadow="2"
   inkscape:pageopacity="0.0"
   inkscape:pagecheckerboard="true"
   inkscape:deskcolor="#d1d1d1"
   inkscape:zoom="0.54590689"
   inkscape:cx="358.11968"
   inkscape:cy="276.60395"
   inkscape:window-width="1556"
   inkscape:window-height="969"
   inkscape:window-x="44"
   inkscape:window-y="0"
   inkscape:window-maximized="1"
   inkscape:current-layer="Layer_1" />





<metadata
   id="metadata6"><rdf:RDF><cc:License
       rdf:about="http://artlibre.org/licence/lal"><cc:permits
         rdf:resource="http://creativecommons.org/ns#Reproduction" /><cc:permits
         rdf:resource="http://creativecommons.org/ns#Distribution" /><cc:permits
         rdf:resource="http://creativecommons.org/ns#DerivativeWorks" /><cc:requires
         rdf:resource="http://creativecommons.org/ns#ShareAlike" /><cc:requires
         rdf:resource="http://creativecommons.org/ns#Notice" /><cc:requires
         rdf:resource="http://creativecommons.org/ns#Attribution" /></cc:License><cc:Work
       rdf:about=""><cc:license
         rdf:resource="http://artlibre.org/licence/lal" /></cc:Work></rdf:RDF></metadata><rect
   style="fill:#f4efef;fill-opacity:1;stroke:none;stroke-width:1.266"
   id="background"
   width="174.25858"
   height="316.58295"
   x="162.18254"
   y="112.72679"
   inkscape:label="background" /><path
   id="button_circle"
   style="fill:#e07d46;stroke:#000000;stroke-opacity:1;stroke-width:8.229;stroke-dasharray:none"
   d="M 253.2,8.0002793 C 118,8.0002793 8.0002793,118 8.0002793,253.2 8.0002793,388.4 118,498.39972 253.2,498.39972 388.4,498.39972 498.39972,388.4 498.39972,253.2 498.39972,118 388.4,8.0002793 253.2,8.0002793 Z M 207.99984,126.80029 h 7.59971 c 8.4,0 15.59999,7.19932 15.59999,15.99932 v 224.40097 c 0,9.2 -6.40008,15.99932 -14.80008,15.99932 h -9.19952 c -8.8,0 -15.99932,-7.19999 -15.99932,-15.59999 v -224.8003 c 0,-8.4 7.99922,-15.99932 16.79922,-15.99932 z m 82.0007,1.99914 h 7.59971 c 8.4,0 15.59999,7.20056 15.59999,16.00056 v 224.39973 c 0,9.2 -6.40008,16.00056 -14.80008,16.00056 h -9.20076 c -8.8,0 -15.99932,-7.19999 -15.99932,-15.59999 v -224.8003 c 0,-8.4 8.00046,-16.00056 16.80046,-16.00056 z"
   sodipodi:nodetypes="sssssssssssssssssssssss"
   inkscape:label="button_circle" /></svg>
