<?xml version="1.0" encoding="UTF-8" standalone="no"?>
<!-- Uploaded to: SVG Repo, www.svgrepo.com, Generator: SVG Repo Mixer Tools -->

<svg
   height="800px"
   width="800px"
   version="1.1"
   id="Layer_1"
   viewBox="0 0 506.4 506.4"
   xml:space="preserve"
   sodipodi:docname="remove.svg"
   inkscape:version="1.4.3 (0d15f75042, 2025-12-25)"
   xmlns:inkscape="http://www.inkscape.org/namespaces/inkscape"
   xmlns:sodipodi="http://sodipodi.sourceforge.net/DTD/sodipodi-0.dtd"
   xmlns="http://www.w3.org/2000/svg"
   xmlns:svg="http://www.w3.org/2000/svg"
   xmlns:rdf="http://www.w3.org/1999/02/22-rdf-syntax-ns#"
   xmlns:cc="http://creativecommons.org/ns#"><defs
   id="defs3" /><sodipodi:namedview
   id="namedview3"
   pagecolor="#ffffff"
   bordercolor="#000000"
   borderopacity="0.25"
   inkscape:showpageshadow="2"
   inkscape:pageopacity="0.0"
   inkscape:pagecheckerboard="true"
   inkscape:deskcolor="#d1d1d1"
   showborder="false"
   inkscape:zoom="0.89875"
   inkscape:cx="400"
   inkscape:cy="399.44367"
   inkscape:window-width="1556"
   inkscape:window-height="969"
   inkscape:window-x="44"
   inkscape:window-y="0"
   inkscape:window-maximized="1"
   inkscape:current-layer="Layer_1" />
<path
   id="circle"
   style="fill:#df5c4e;stroke:#000000;stroke-width:8.229;stroke-dasharray:none;stroke-opacity:1"
   d="M 253.2,8.0002793 C 118,8.0002793 8.0002793,118 8.0002793,253.2 8.0002793,388.4 118,498.39972 253.2,498.39972 388.4,498.39972 498.39972,388.4 498.39972,253.2 498.39972,118 388.4,8.0002793 253.2,8.0002793 Z"
   inkscape:label="circle"
   sodipodi:insensitive="true" />
<path
   id="x_p"
   style="fill:#f4efef;stroke:#000000;stroke-width:8.229;stroke-dasharray:none;stroke-opacity:1"
   d="m 353.2004,134.80056 c -2,0 -4.00057,0.79972 -5.60057,2.39972 l -90.79964,90.79964 c -1.6,1.6 -4.00057,1.6 -5.60057,0 l -90.79965,-90.79964 c -2.8,-2.8 -8.00056,-2.8 -10.80056,0 l -11.59923,11.19989 c -1.6,1.6 -2.39971,3.19933 -2.39971,5.59933 0,2.4 0.79971,4.00057 2.39971,5.60057 l 90.79965,90.79965 c 1.6,1.6 1.6,4.00056 0,5.60056 l -90.79965,90.79965 c -1.6,1.6 -2.39971,3.20057 -2.39971,5.60057 0,2 0.79971,3.99933 2.39971,5.59933 l 11.59923,11.60046 c 2.8,2.8 8.00056,2.8 10.80056,0 l 90.79965,-90.80088 c 0.4,-1.2 1.20095,-1.59981 2.40095,-1.59981 1.2,0 1.99905,0.40048 2.79905,1.20048 l 90.80088,90.79964 c 1.6,1.6 3.19933,2.39972 5.59933,2.39972 2,0 4.00057,-0.79972 5.60057,-2.39972 l 11.59923,-11.59923 c 1.6,-1.6 2.40095,-3.20056 2.40095,-5.60056 0,-2 -0.80095,-3.99933 -2.40095,-5.59933 l -90.79965,-90.80089 c -0.8,-0.8 -1.20047,-1.60028 -1.20047,-2.80028 0,-1.2 0.40047,-1.99905 1.20047,-2.79905 l 90.79965,-90.80088 c 2.8,-2.8 2.8,-7.99933 0,-10.79933 l -11.1999,-11.19989 c -1.6,-1.6 -3.19933,-2.39972 -5.59933,-2.39972 z"
   inkscape:label="x_p"
   sodipodi:insensitive="true" />


<metadata
   id="metadata3"><rdf:RDF><cc:License
       rdf:about="http://artlibre.org/licence/lal"><cc:permits
         rdf:resource="http://creativecommons.org/ns#Reproduction" /><cc:permits
         rdf:resource="http://creativecommons.org/ns#Distribution" /><cc:permits
         rdf:resource="http://creativecommons.org/ns#DerivativeWorks" /><cc:requires
         rdf:resource="http://creativecommons.org/ns#ShareAlike" /><cc:requires
         rdf:resource="http://creativecommons.org/ns#Notice" /><cc:requires
         rdf:resource="http://creativecommons.org/ns#Attribution" /></cc:License></rdf:RDF></metadata></svg>
