<?xml version="1.0" encoding="UTF-8"?>
<svg width="800px" height="800px" version="1.1" viewBox="0 0 506 506" xml:space="preserve" xmlns="http://www.w3.org/2000/svg">
<path id="circle" d="m253 8c-135 0-245 110-245 245s110 245 245 245 245-110 245-245-110-245-245-245z" fill="#df5c4e" stroke="#000" stroke-width="8.23"/>
<path id="x_p" d="m353 135c-2 0-4 0.8-5.6 2.4l-90.8 90.8c-1.6 1.6-4 1.6-5.6 0l-90.8-90.8c-2.8-2.8-8-2.8-10.8 0l-11.6 11.2c-1.6 1.6-2.4 3.2-2.4 5.6s0.8 4 2.4 5.6l90.8 90.8c1.6 1.6 1.6 4 0 5.6l-90.8 90.8c-1.6 1.6-2.4 3.2-2.4 5.6 0 2 0.8 4 2.4 5.6l11.6 11.6c2.8 2.8 8 2.8 10.8 0l90.8-90.8c0.4-1.2 1.2-1.6 2.4-1.6s2 0.4 2.8 1.2l90.8 90.8c1.6 1.6 3.2 2.4 5.6 2.4 2 0 4-0.8 5.6-2.4l11.6-11.6c1.6-1.6 2.4-3.2 2.4-5.6 0-2-0.801-4-2.4-5.6l-90.8-90.8c-0.8-0.8-1.2-1.6-1.2-2.8s0.4-2 1.2-2.8l90.8-90.8c2.8-2.8 2.8-8 0-10.8l-11.2-11.2c-1.6-1.6-3.2-2.4-5.6-2.4z" fill="#f4efef" stroke="#000" stroke-width="8.23"/>


</svg>
