<?xml version="1.0" encoding="UTF-8"?>
<svg width="800px" height="800px" version="1.1" viewBox="0 0 506 506" xml:space="preserve" xmlns="http://www.w3.org/2000/svg"><g stroke="#000" stroke-width="8.23">


<path id="main-circle" d="m253 8c-135 0-245 110-245 245s110 245 245 245 245-110 245-245-110-245-245-245z" fill="#FFC52F"/><path d="m340 166c-2.04-0.0188-4.82 1.26-7.82 3.66l-100 70.8c-5.2 3.6-8.4 8.4-8.4 13.2 0 4.4 2.8 8.8 7.2 12l101 70.8c4.4 2.8 8 4 9.6 3.2 2.4-1.2 3.6-5.6 3.6-12.4v-148c0-6.4-1.2-11.2-3.6-12.4-0.5-0.3-1.1-0.45-1.78-0.456z" fill="#f4efef"/>

<path d="m179 164c-2.8 0-5.6 2.4-5.6 4.8v168c0 2.4 2.4 4.8 5.2 4.8h6.8c2.8 0 4-2.4 4-4.8v-168c0-2.8-2-5.2-4.4-5.2h-6z" fill="#f4efef"/>
</g></svg>
