<?xml version="1.0" encoding="UTF-8"?>
<svg width="800px" height="800px" version="1.1" viewBox="0 0 506 506" xml:space="preserve" xmlns="http://www.w3.org/2000/svg">
<path id="outer_circle" d="m253 8c-135 0-245 110-245 245s110 245 245 245 245-110 245-245-110-245-245-245z" fill="#13A289" stroke="#000" stroke-width="8.23"/>
<path id="inner_circle" d="m428 104c34.4 40 54.8 92 54.8 149 0 127-103 230-230 230s-229-103-229-230 103-229 230-229c56.8 0 109 20.4 149 54.8 0-0.4 15.6 14 25.6 25.6z" fill="#54B265"/>
<path id="triangle" d="m195 135c-2.4 0-4.4 0.4-6 1.6-4.8 2.8-8 8.8-8 16.8v200c1e-5 8 2.8 14.4 8 16.8 5.2 2.8 12.4 1.6 19.6-3.6l138-95.2c7.6-5.2 11.6-11.6 11.6-18.8 0-6.8-4-13.2-10.8-18l-139-95.2c-4.8-2.8-9.6-4.4-13.6-4.4z" fill="#F4EFEF" stroke="#000" stroke-width="8.23"/>


</svg>
