<?xml version="1.0" encoding="UTF-8"?>
<svg version="1.1" viewBox="0 0 512 512" xml:space="preserve" xmlns="http://www.w3.org/2000/svg">
<rect x="36.3" y="456" width="444" height="44" fill="#E6E9ED"/>
<path d="m469 480c0 5.89 4.75 10.7 10.7 10.7v-21.3c-5.91 0-10.7 4.76-10.7 10.7z" fill="#CCD1D9"/>
<path d="m51.9 469h428c5.88 0 10.7-4.77 10.7-10.7v-448c0-5.89-4.78-10.7-10.7-10.7h-416c-23.6 0-42.7 19.1-42.7 42.7v0.016 437c0 17.7 14.3 32 32 32h427c5.88 0 10.7-4.78 10.7-10.7 0-5.91-4.78-10.7-10.7-10.7h-427c-5.89 0-10.7-4.78-10.7-10.7 0-5.38 4.02-9.84 9.2-10.6z" fill="#ED5564"/>
<g opacity=".2">
	<path d="m480 0h-21.3c5.9 0 10.7 4.77 10.7 10.7v448c0 5.89-4.78 10.7-10.7 10.7h21.3c5.88 0 10.7-4.77 10.7-10.7v-448c0-5.89-4.78-10.7-10.7-10.7z" fill="#fff"/>
</g>
<g fill="#DA4453">
	<path d="m256 341c-5.89 0-10.7 4.77-10.7 10.7-0.016 5.89 4.77 10.7 10.7 10.7s10.7-4.77 10.7-10.7-4.78-10.7-10.7-10.7z"/>
	<path d="m213 341c-2.53 0-4.86 0.875-6.69 2.36v-0.016c-0.031 0.031-3.09 2.34-6.97 3.44-4.55 1.31-7.84 0.5-11-2.69-8.7-8.66-20-11.5-31.8-8.06-7.92 2.31-13.5 6.78-14.2 7.38 0 0.016-0.016 0.031-0.016 0.031h-0.016c-2.36 1.97-3.86 4.91-3.86 8.22 0 5.89 4.78 10.7 10.7 10.7 2.59 0 4.97-0.906 6.81-2.44 0.031-0.031 2.94-2.28 6.66-3.38 4.36-1.27 7.58-0.469 10.8 2.72 6.3 6.25 14 9.5 22.3 9.5 3.16 0 6.4-0.469 9.7-1.42 8.09-2.33 13.8-6.83 14.5-7.33 2.42-1.97 3.97-4.95 3.97-8.31 2e-3 -5.89-4.76-10.7-10.7-10.7z"/>
	<path d="m369 344c-0.031 0-0.031-0.016-0.031-0.031-0.75-0.594-6.34-5.06-14.2-7.38-11.8-3.47-23.1-0.594-31.8 8.06-3.09 3.09-6.28 3.94-10.6 2.81-4.19-1.06-7.47-3.59-7.5-3.61l0.062 0.047v0.016c-1.81-1.48-4.16-2.36-6.69-2.36-5.88 0-10.7 4.77-10.7 10.7 0 3.36 1.56 6.34 3.97 8.31 0.625 0.5 6.38 5 14.5 7.33 3.28 0.953 6.53 1.42 9.69 1.42 8.31 0 16-3.25 22.3-9.5 3.06-3.08 6.16-3.92 10.3-2.84 4.03 1.06 7.16 3.53 7.19 3.56l-0.062-0.031c1.84 1.5 4.22 2.41 6.78 2.41 5.9 0 10.7-4.77 10.7-10.7-1e-3 -3.31-1.5-6.25-3.84-8.22zm-13.6 16.4h0.031-0.031z"/>
	<path d="m256 107c-5.89 0-10.7 4.78-10.7 10.7 0 5.89 4.77 10.7 10.7 10.7s10.7-4.77 10.7-10.7c0-5.89-4.78-10.7-10.7-10.7z"/>
	<path d="m299 128c2.53 0 4.87-0.891 6.69-2.37v8e-3c0.031-0.023 3.09-2.33 6.97-3.44 4.56-1.3 7.88-0.5 11.1 2.7 6.28 6.27 13.9 9.5 22.2 9.5 3.16 0 6.38-0.477 9.66-1.43 7.94-2.32 13.5-6.8 14.2-7.39 0 0 0-8e-3 0.031-0.016v-8e-3c2.34-1.96 3.88-4.91 3.88-8.21 0-5.89-4.78-10.7-10.7-10.7-2.59 0-4.97 0.922-6.81 2.45 0 0.023-2.94 2.27-6.66 3.37-4.34 1.27-7.56 0.461-10.8-2.71-8.69-8.64-20.1-11.5-32-8.08-8.09 2.32-13.8 6.83-14.5 7.34-2.41 1.96-3.97 4.94-3.97 8.3 1e-3 5.89 4.78 10.7 10.7 10.7z"/>
	<path d="m220 109c-0.625-0.508-6.38-5.02-14.5-7.34-12-3.44-23.3-0.562-32 8.08-3.08 3.07-6.17 3.92-10.3 2.84-4.02-1.06-7.14-3.52-7.17-3.55l0.031 0.031c-1.84-1.52-4.2-2.43-6.77-2.43-5.89 0-10.7 4.78-10.7 10.7 0 3.3 1.5 6.25 3.86 8.21 0 0 0.016 8e-3 0.016 0.016 0 0 0 8e-3 0.016 8e-3 0.703 0.586 6.31 5.06 14.2 7.39 3.27 0.953 6.5 1.43 9.64 1.43 8.23 0 15.9-3.23 22.2-9.5 3.09-3.09 6.27-3.93 10.6-2.81 4.19 1.08 7.44 3.59 7.47 3.62l-0.062-0.055v-8e-3c1.83 1.48 4.16 2.37 6.69 2.37 5.91 0 10.7-4.77 10.7-10.7-1e-3 -3.36-1.55-6.34-3.97-8.3zm-63.9 0.078 0.016 8e-3 -0.016-8e-3z"/>
</g>
<g fill="#FFCE54">
	<path d="m149 192c-3.23 0-6.12 1.45-8.08 3.73l-23.9 23.9-23.9-23.9c-1.97-2.28-4.86-3.73-8.11-3.73-5.87 0-10.7 4.77-10.7 10.7v64c0 5.9 4.78 10.7 10.7 10.7 5.91 0 10.7-4.78 10.7-10.7v-38.2l13.8 13.8c1.92 1.93 4.59 3.12 7.53 3.12 2.95 0 5.62-1.2 7.55-3.12l13.8-13.8v38.2c0 5.9 4.78 10.7 10.7 10.7 5.91 0 10.7-4.78 10.7-10.7v-64c0-5.89-4.77-10.7-10.7-10.7z"/>
	<path d="m341 203c0-5.89-4.78-10.7-10.7-10.7-5.88 0-10.7 4.77-10.7 10.7v34.5l-34.5-41.4c-1.97-2.34-4.9-3.84-8.22-3.84-5.87 0-10.6 4.77-10.6 10.7v64c0 5.9 4.78 10.7 10.6 10.7 5.9 0 10.7-4.78 10.7-10.7v-34.5l34.5 41.4c1.97 2.34 4.91 3.84 8.19 3.84 5.91 0 10.7-4.78 10.7-10.7l-0.031-8e-3v-64c-2e-3 -0.01 0.03-0.01 0.03-0.017z"/>
	<path d="m437 203c0-5.89-4.78-10.7-10.7-10.7-5.88 0-10.7 4.77-10.7 10.7v37.3c0 8.82-7.19 16-16 16s-16-7.18-16-16v-37.3-0.016c0-5.89-4.78-10.7-10.7-10.7-5.91 0-10.7 4.77-10.7 10.7v37.3c0 20.6 16.7 37.3 37.3 37.3 20.6 0 37.3-16.7 37.3-37.3v-37.3c0-8e-3 0.032-8e-3 0.032-0.015z"/>
	<path d="m235 213c5.89 0 10.7-4.78 10.7-10.7s-4.76-10.7-10.7-10.7h-42.7c-5.89 0-10.7 4.77-10.7 10.7h-0.016v64h0.016c0 5.9 4.77 10.7 10.7 10.7h42.7c5.89 0 10.7-4.78 10.7-10.7 0-5.89-4.76-10.7-10.7-10.7h-32v-10.7h21.3c5.89 0 10.7-4.78 10.7-10.7 0-5.89-4.78-10.7-10.7-10.7h-21.3v-10.7h32z"/>
</g>
</svg>
