<?xml version="1.0" encoding="UTF-8"?>
<svg version="1.1" viewBox="0 0 512 512" xml:space="preserve" xmlns="http://www.w3.org/2000/svg">
<rect x="36" y="456" width="444" height="44" fill="#E6E9ED"/>
<path d="m469 480c0 5.9 4.8 11 11 11v-21c-5.9 0-11 4.8-11 11z" fill="#CCD1D9"/>
<path d="m52 469h428c5.9 0 11-4.8 11-11v-448c0-5.9-4.8-11-11-11h-416c-24 0-43 19-43 43v0.016 437c0 18 14 32 32 32h427c5.9 0 11-4.8 11-11 0-5.9-4.8-11-11-11h-427c-5.9 0-11-4.8-11-11 0-5.4 4-9.8 9.2-11z" fill="#ED5564"/>
<g opacity=".2">
	<path d="m480 0h-21c5.9 0 11 4.8 11 11v448c0 5.9-4.8 11-11 11h21c5.9 0 11-4.8 11-11v-448c0-5.9-4.8-11-11-11z" fill="#fff"/>
</g>
<g fill="#DA4453">
	<path d="m256 341c-5.9 0-11 4.8-11 11-0.016 5.9 4.8 11 11 11s11-4.8 11-11-4.8-11-11-11z"/>
	<path d="m213 341c-2.5 0-4.9 0.88-6.7 2.4v-0.016c-0.031 0.031-3.1 2.3-7 3.4-4.5 1.3-7.8 0.5-11-2.7-8.7-8.7-20-12-32-8.1-7.9 2.3-14 6.8-14 7.4 0 0.016-0.016 0.031-0.016 0.031h-0.016c-2.4 2-3.9 4.9-3.9 8.2 0 5.9 4.8 11 11 11 2.6 0 5-0.91 6.8-2.4 0.031-0.031 2.9-2.3 6.7-3.4 4.4-1.3 7.6-0.47 11 2.7 6.3 6.2 14 9.5 22 9.5 3.2 0 6.4-0.47 9.7-1.4 8.1-2.3 14-6.8 14-7.3 2.4-2 4-5 4-8.3 2e-3 -5.9-4.8-11-11-11z"/>
	<path d="m369 344c-0.031 0-0.031-0.016-0.031-0.031-0.75-0.59-6.3-5.1-14-7.4-12-3.5-23-0.59-32 8.1-3.1 3.1-6.3 3.9-11 2.8-4.2-1.1-7.5-3.6-7.5-3.6l0.062 0.047v0.016c-1.8-1.5-4.2-2.4-6.7-2.4-5.9 0-11 4.8-11 11 0 3.4 1.6 6.3 4 8.3 0.62 0.5 6.4 5 14 7.3 3.3 0.95 6.5 1.4 9.7 1.4 8.3 0 16-3.2 22-9.5 3.1-3.1 6.2-3.9 10-2.8 4 1.1 7.2 3.5 7.2 3.6l-0.062-0.031c1.8 1.5 4.2 2.4 6.8 2.4 5.9 0 11-4.8 11-11-1e-3 -3.3-1.5-6.2-3.8-8.2zm-14 16h0.031-0.031z"/>
	<path d="m256 107c-5.9 0-11 4.8-11 11 0 5.9 4.8 11 11 11s11-4.8 11-11c0-5.9-4.8-11-11-11z"/>
	<path d="m299 128c2.5 0 4.9-0.89 6.7-2.4v8e-3c0.031-0.023 3.1-2.3 7-3.4 4.6-1.3 7.9-0.5 11 2.7 6.3 6.3 14 9.5 22 9.5 3.2 0 6.4-0.48 9.7-1.4 7.9-2.3 14-6.8 14-7.4 0 0 0-8e-3 0.031-0.016v-8e-3c2.3-2 3.9-4.9 3.9-8.2 0-5.9-4.8-11-11-11-2.6 0-5 0.92-6.8 2.5 0 0.023-2.9 2.3-6.7 3.4-4.3 1.3-7.6 0.46-11-2.7-8.7-8.6-20-12-32-8.1-8.1 2.3-14 6.8-14 7.3-2.4 2-4 4.9-4 8.3 1e-3 5.9 4.8 11 11 11z"/>
	<path d="m220 109c-0.62-0.51-6.4-5-14-7.3-12-3.4-23-0.56-32 8.1-3.1 3.1-6.2 3.9-10 2.8-4-1.1-7.1-3.5-7.2-3.5l0.031 0.031c-1.8-1.5-4.2-2.4-6.8-2.4-5.9 0-11 4.8-11 11 0 3.3 1.5 6.2 3.9 8.2 0 0 0.016 8e-3 0.016 0.016 0 0 0 8e-3 0.016 8e-3 0.7 0.59 6.3 5.1 14 7.4 3.3 0.95 6.5 1.4 9.6 1.4 8.2 0 16-3.2 22-9.5 3.1-3.1 6.3-3.9 11-2.8 4.2 1.1 7.4 3.6 7.5 3.6l-0.062-0.055v-8e-3c1.8 1.5 4.2 2.4 6.7 2.4 5.9 0 11-4.8 11-11-1e-3 -3.4-1.5-6.3-4-8.3zm-64 0.078 0.016 8e-3 -0.016-8e-3z"/>
</g>
<g fill="#FFCE54">
	<path d="m149 192c-3.2 0-6.1 1.5-8.1 3.7l-24 24-24-24c-2-2.3-4.9-3.7-8.1-3.7-5.9 0-11 4.8-11 11v64c0 5.9 4.8 11 11 11 5.9 0 11-4.8 11-11v-38l14 14c1.9 1.9 4.6 3.1 7.5 3.1 3 0 5.6-1.2 7.5-3.1l14-14v38c0 5.9 4.8 11 11 11 5.9 0 11-4.8 11-11v-64c0-5.9-4.8-11-11-11z"/>
	<path d="m341 203c0-5.9-4.8-11-11-11-5.9 0-11 4.8-11 11v35l-34-41c-2-2.3-4.9-3.8-8.2-3.8-5.9 0-11 4.8-11 11v64c0 5.9 4.8 11 11 11 5.9 0 11-4.8 11-11v-35l34 41c2 2.3 4.9 3.8 8.2 3.8 5.9 0 11-4.8 11-11l-0.031-8e-3v-64c-2e-3 -0.01 0.03-0.01 0.03-0.017z"/>
	<path d="m437 203c0-5.9-4.8-11-11-11-5.9 0-11 4.8-11 11v37c0 8.8-7.2 16-16 16s-16-7.2-16-16v-37-0.016c0-5.9-4.8-11-11-11-5.9 0-11 4.8-11 11v37c0 21 17 37 37 37 21 0 37-17 37-37v-37c0-8e-3 0.032-8e-3 0.032-0.015z"/>
	<path d="m235 213c5.9 0 11-4.8 11-11s-4.8-11-11-11h-43c-5.9 0-11 4.8-11 11h-0.016v64h0.016c0 5.9 4.8 11 11 11h43c5.9 0 11-4.8 11-11 0-5.9-4.8-11-11-11h-32v-11h21c5.9 0 11-4.8 11-11 0-5.9-4.8-11-11-11h-21v-11h32z"/>
</g>
</svg>
